<?xml version="1.0" ?><!DOCTYPE svg  PUBLIC '-//W3C//DTD SVG 1.1//EN'  'http://www.w3.org/Graphics/SVG/1.1/DTD/svg11.dtd'><svg enable-background="new 0 0 24 24" height="24px" id="Layer_1" version="1.1" viewBox="0 0 24 24" width="24px" xml:space="preserve" xmlns="http://www.w3.org/2000/svg" xmlns:xlink="http://www.w3.org/1999/xlink"><g><path d="M20.6,5.7c0-0.2-0.1-0.3-0.2-0.4l-8.1-4.7c-0.1-0.1-0.3-0.1-0.5,0L3.6,5.3C3.5,5.4,3.4,5.5,3.4,5.7c0,0.2,0.1,0.3,0.2,0.4   l8.1,4.7c0.1,0,0.2,0.1,0.2,0.1s0.2,0,0.2-0.1l8.1-4.7C20.5,6,20.6,5.8,20.6,5.7z"/><path d="M10.6,13.2L2.5,8.5C2.3,8.4,2.1,8.4,2,8.5C1.9,8.6,1.8,8.8,1.8,8.9v9.4c0,0.2,0.1,0.3,0.2,0.4l8.1,4.7   c0.1,0,0.2,0.1,0.2,0.1s0.2,0,0.2-0.1c0.1-0.1,0.2-0.2,0.2-0.4v-9.4C10.9,13.4,10.8,13.3,10.6,13.2z"/><path d="M22,8.5c-0.1-0.1-0.3-0.1-0.5,0l-8.1,4.7c-0.1,0.1-0.2,0.2-0.2,0.4V23c0,0.2,0.1,0.3,0.2,0.4c0.1,0,0.2,0.1,0.2,0.1   s0.2,0,0.2-0.1l8.1-4.7c0.1-0.1,0.2-0.2,0.2-0.4V8.9C22.2,8.8,22.1,8.6,22,8.5z"/></g></svg>